<svg width="152" height="91" viewBox="13 0 139 91" fill="none" xmlns="http://www.w3.org/2000/svg">
<g clip-path="url(#clip0_9_66)">
<!-- Axes -->
<path d="M19.8152 82.1402H149.72" stroke="#000000" stroke-width="0.8"/>
<path d="M19.8152 82.1402V2.27502" stroke="#000000" stroke-width="0.8"/>
<!-- Dotted lines (background) -->
<mask id="mask6_9_66" style="mask-type:luminance" maskUnits="userSpaceOnUse" x="13" y="2" width="137" height="81">
<path d="M149.72 2.27502H13.6293V82.1402H149.72V2.27502Z" fill="white"/>
</mask>
<g mask="url(#mask6_9_66)">
<path d="M40.4351 5.90527V45.25" stroke="#808080" stroke-width="0.8" stroke-dasharray="1.33 2.2"/>
</g>
<mask id="mask7_9_66" style="mask-type:luminance" maskUnits="userSpaceOnUse" x="13" y="2" width="137" height="81">
<path d="M149.72 2.27502H13.6293V82.1402H149.72V2.27502Z" fill="white"/>
</mask>
<g mask="url(#mask7_9_66)">
<path d="M61.0549 5.90527V25.33" stroke="#808080" stroke-width="0.8" stroke-dasharray="1.33 2.2"/>
</g>
<mask id="mask8_9_66" style="mask-type:luminance" maskUnits="userSpaceOnUse" x="13" y="2" width="137" height="81">
<path d="M149.72 2.27502H13.6293V82.1402H149.72V2.27502Z" fill="white"/>
</mask>
<g mask="url(#mask8_9_66)">
<path d="M102.294 5.90527V24.85" stroke="#808080" stroke-width="0.8" stroke-dasharray="1.33 2.2"/>
</g>
<path d="M40.4351 82.1401V81.4028V82.1401Z" fill="#1A1A1A"/>
<path d="M40.4351 82.1401V81.4028" stroke="#1A1A1A" stroke-width="1.06667"/>
<path d="M39.5508 86.5H40.5316V86.71H39.7795V87.1614C39.8157 87.1491 39.8518 87.1399 39.888 87.1338C39.9244 87.1277 39.9608 87.1247 39.9972 87.1247C40.2033 87.1247 40.3665 87.1811 40.4869 87.2938C40.6075 87.4065 40.6678 87.559 40.6678 87.7515C40.6678 87.9498 40.6059 88.104 40.4821 88.214C40.3584 88.3238 40.1839 88.3787 39.9588 88.3787C39.8813 88.3787 39.8022 88.3721 39.7217 88.359C39.6415 88.3458 39.5585 88.3261 39.4727 88.2997V88.0489C39.5469 88.0892 39.6236 88.1192 39.7027 88.139C39.7819 88.1587 39.8655 88.1686 39.9537 88.1686C40.0964 88.1686 40.2094 88.1312 40.2925 88.0564C40.3759 87.9817 40.4176 87.88 40.4176 87.7515C40.4176 87.6233 40.3759 87.5218 40.2925 87.447C40.2094 87.372 40.0964 87.3344 39.9537 87.3344C39.887 87.3344 39.8203 87.3418 39.7538 87.3566C39.6876 87.3713 39.6199 87.3943 39.5508 87.4257V86.5Z" fill="#1A1A1A"/>
<path d="M61.0549 82.1401V81.4028V82.1401Z" fill="#1A1A1A"/>
<path d="M61.0549 82.1401V81.4028" stroke="#1A1A1A" stroke-width="1.06667"/>
<path d="M59.4054 88.1331H59.8135V86.727L59.3694 86.8159V86.5888L59.8111 86.4999H60.0609V88.1331H60.469V88.3428H59.4054V88.1331Z" fill="#1A1A1A"/>
<path d="M61.508 86.6642C61.3795 86.6642 61.2828 86.7274 61.2179 86.8538C61.1532 86.9799 61.1209 87.1697 61.1209 87.4233C61.1209 87.6758 61.1532 87.8653 61.2179 87.9917C61.2828 88.1181 61.3795 88.1812 61.508 88.1812C61.6376 88.1812 61.7347 88.1181 61.7994 87.9917C61.8643 87.8653 61.8967 87.6758 61.8967 87.4233C61.8967 87.1697 61.8643 86.9799 61.7994 86.8538C61.7347 86.7274 61.6376 86.6642 61.508 86.6642ZM61.508 86.4667C61.7152 86.4667 61.8734 86.5485 61.9826 86.712C62.0919 86.8752 62.1465 87.1123 62.1465 87.4233C62.1465 87.7335 62.0919 87.9703 61.9826 88.1339C61.8734 88.2971 61.7152 88.3787 61.508 88.3787C61.3011 88.3787 61.1431 88.2971 61.0338 88.1339C60.9246 87.9703 60.8699 87.7335 60.8699 87.4233C60.8699 87.1123 60.9246 86.8752 61.0338 86.712C61.1431 86.5485 61.3011 86.4667 61.508 86.4667Z" fill="#1A1A1A"/>
<path d="M81.6747 82.1401V81.4028V82.1401Z" fill="#1A1A1A"/>
<path d="M81.6747 82.1401V81.4028" stroke="#1A1A1A" stroke-width="1.06667"/>
<path d="M80.0252 88.1331H80.4333V86.727L79.9892 86.8159V86.5888L80.4309 86.4999H80.6807V88.1331H81.0888V88.3428H80.0252V88.1331Z" fill="#1A1A1A"/>
<path d="M81.5962 86.4999H82.5771V86.71H81.825V87.1614C81.8612 87.1491 81.8973 87.1399 81.9335 87.1338C81.9699 87.1277 82.0063 87.1247 82.0427 87.1247C82.2488 87.1247 82.412 87.1811 82.5324 87.2938C82.653 87.4065 82.7133 87.559 82.7133 87.7515C82.7133 87.9498 82.6514 88.104 82.5276 88.214C82.4039 88.3238 82.2294 88.3787 82.0043 88.3787C81.9267 88.3787 81.8477 88.3721 81.7672 88.359C81.687 88.3458 81.604 88.3261 81.5182 88.2997V88.0489C81.5924 88.0892 81.6691 88.1192 81.7482 88.139C81.8274 88.1587 81.911 88.1686 81.9992 88.1686C82.142 88.1686 82.2549 88.1312 82.338 88.0564C82.4214 87.9817 82.4631 87.88 82.4631 87.7515C82.4631 87.6233 82.4214 87.5218 82.338 87.447C82.2549 87.372 82.142 87.3344 81.9992 87.3344C81.9324 87.3344 81.8658 87.3418 81.7993 87.3566C81.7331 87.3713 81.6654 87.3943 81.5962 87.4257V86.4999Z" fill="#1A1A1A"/>
<path d="M102.294 82.1401V81.4028V82.1401Z" fill="#1A1A1A"/>
<path d="M102.294 82.1401V81.4028" stroke="#1A1A1A" stroke-width="1.06667"/>
<path d="M100.817 88.1331H101.689V88.3428H100.516V88.1331C100.611 88.0352 100.74 87.9038 100.904 87.7389C101.068 87.5738 101.171 87.4673 101.213 87.4194C101.293 87.3299 101.348 87.2541 101.38 87.1919C101.412 87.1298 101.428 87.0687 101.428 87.0086C101.428 86.9107 101.394 86.8309 101.325 86.7693C101.256 86.7074 101.166 86.6765 101.055 86.6765C100.977 86.6765 100.894 86.69 100.807 86.7172C100.72 86.7443 100.628 86.7855 100.529 86.8408V86.5888C100.629 86.5485 100.723 86.5181 100.81 86.4976C100.898 86.477 100.978 86.4668 101.051 86.4668C101.242 86.4668 101.395 86.5145 101.508 86.6101C101.622 86.7054 101.679 86.8329 101.679 86.9925C101.679 87.0683 101.665 87.1402 101.636 87.2081C101.608 87.2758 101.556 87.3557 101.481 87.4478C101.46 87.4718 101.395 87.5408 101.284 87.6548C101.174 87.7688 101.018 87.9283 100.817 88.1331Z" fill="#1A1A1A"/>
<path d="M102.748 86.6642C102.619 86.6642 102.522 86.7274 102.457 86.8538C102.393 86.9799 102.361 87.1697 102.361 87.4233C102.361 87.6758 102.393 87.8653 102.457 87.9917C102.522 88.1181 102.619 88.1812 102.748 88.1812C102.877 88.1812 102.974 88.1181 103.039 87.9917C103.104 87.8653 103.136 87.6758 103.136 87.4233C103.136 87.1697 103.104 86.9799 103.039 86.8538C102.974 86.7274 102.877 86.6642 102.748 86.6642ZM102.748 86.4667C102.955 86.4667 103.113 86.5485 103.222 86.712C103.331 86.8752 103.386 87.1123 103.386 87.4233C103.386 87.7335 103.331 87.9703 103.222 88.1339C103.113 88.2971 102.955 88.3787 102.748 88.3787C102.541 88.3787 102.383 88.2971 102.273 88.1339C102.164 87.9703 102.11 87.7335 102.11 87.4233C102.11 87.1123 102.164 86.8752 102.273 86.712C102.383 86.5485 102.541 86.4667 102.748 86.4667Z" fill="#1A1A1A"/>
<path d="M122.914 82.1401V81.4028V82.1401Z" fill="#1A1A1A"/>
<path d="M122.914 82.1401V81.4028" stroke="#1A1A1A" stroke-width="1.06667"/>
<path d="M121.437 88.1331H122.309V88.3428H121.136V88.1331C121.231 88.0352 121.36 87.9038 121.524 87.7389C121.688 87.5738 121.79 87.4673 121.832 87.4194C121.912 87.3299 121.968 87.2541 122 87.1919C122.032 87.1298 122.048 87.0687 122.048 87.0086C122.048 86.9107 122.013 86.8309 121.944 86.7693C121.876 86.7074 121.786 86.6765 121.675 86.6765C121.597 86.6765 121.514 86.69 121.427 86.7172C121.34 86.7443 121.247 86.7855 121.148 86.8408V86.5888C121.249 86.5485 121.343 86.5181 121.43 86.4976C121.518 86.477 121.598 86.4668 121.671 86.4668C121.862 86.4668 122.014 86.5145 122.128 86.6101C122.242 86.7054 122.299 86.8329 122.299 86.9925C122.299 87.0683 122.284 87.1402 122.256 87.2081C122.228 87.2758 122.176 87.3557 122.101 87.4478C122.08 87.4718 122.015 87.5408 121.904 87.6548C121.794 87.7688 121.638 87.9283 121.437 88.1331Z" fill="#1A1A1A"/>
<path d="M122.836 86.4999H123.817V86.71H123.065V87.1614C123.101 87.1491 123.137 87.1399 123.173 87.1338C123.21 87.1277 123.246 87.1247 123.282 87.1247C123.488 87.1247 123.652 87.1811 123.772 87.2938C123.893 87.4065 123.953 87.559 123.953 87.7515C123.953 87.9498 123.891 88.104 123.767 88.214C123.643 88.3238 123.469 88.3787 123.244 88.3787C123.166 88.3787 123.087 88.3721 123.007 88.359C122.927 88.3458 122.844 88.3261 122.758 88.2997V88.0489C122.832 88.0892 122.909 88.1192 122.988 88.139C123.067 88.1587 123.151 88.1686 123.239 88.1686C123.382 88.1686 123.495 88.1312 123.578 88.0564C123.661 87.9817 123.703 87.88 123.703 87.7515C123.703 87.6233 123.661 87.5218 123.578 87.447C123.495 87.372 123.382 87.3344 123.239 87.3344C123.172 87.3344 123.105 87.3418 123.039 87.3566C122.973 87.3713 122.905 87.3943 122.836 87.4257V86.4999Z" fill="#1A1A1A"/>
<path d="M143.534 82.1401V81.4028V82.1401Z" fill="#1A1A1A"/>
<path d="M143.534 82.1401V81.4028" stroke="#1A1A1A" stroke-width="1.06667"/>
<path d="M142.598 87.3491C142.718 87.3746 142.811 87.4278 142.878 87.5086C142.945 87.5892 142.979 87.6887 142.979 87.8072C142.979 87.9889 142.916 88.1296 142.791 88.2294C142.666 88.329 142.488 88.3787 142.257 88.3787C142.179 88.3787 142.1 88.3711 142.018 88.3558C141.936 88.3405 141.851 88.3176 141.763 88.2871V88.0466C141.833 88.0868 141.908 88.1173 141.991 88.1378C142.073 88.1583 142.16 88.1686 142.25 88.1686C142.406 88.1686 142.525 88.1378 142.607 88.0762C142.689 88.0146 142.731 87.9249 142.731 87.8072C142.731 87.6985 142.692 87.6135 142.616 87.5525C142.54 87.4911 142.434 87.4604 142.298 87.4604H142.083V87.2554H142.308C142.43 87.2554 142.524 87.231 142.59 87.182C142.655 87.133 142.687 87.0624 142.687 86.9703C142.687 86.8758 142.654 86.8032 142.586 86.7527C142.519 86.7018 142.423 86.6764 142.298 86.6764C142.229 86.6764 142.156 86.6839 142.077 86.6989C141.999 86.7137 141.913 86.7366 141.819 86.7677V86.5457C141.914 86.5194 142.003 86.4996 142.086 86.4864C142.169 86.4733 142.247 86.4667 142.32 86.4667C142.51 86.4667 142.66 86.5098 142.77 86.5959C142.881 86.6817 142.936 86.7978 142.936 86.9442C142.936 87.0464 142.907 87.1326 142.848 87.2029C142.789 87.2732 142.706 87.3219 142.598 87.3491Z" fill="#1A1A1A"/>
<path d="M143.987 86.6642C143.859 86.6642 143.762 86.7274 143.697 86.8538C143.632 86.9799 143.6 87.1697 143.6 87.4233C143.6 87.6758 143.632 87.8653 143.697 87.9917C143.762 88.1181 143.859 88.1812 143.987 88.1812C144.117 88.1812 144.214 88.1181 144.279 87.9917C144.344 87.8653 144.376 87.6758 144.376 87.4233C144.376 87.1697 144.344 86.9799 144.279 86.8538C144.214 86.7274 144.117 86.6642 143.987 86.6642ZM143.987 86.4667C144.194 86.4667 144.353 86.5485 144.462 86.712C144.571 86.8752 144.626 87.1123 144.626 87.4233C144.626 87.7335 144.571 87.9703 144.462 88.1339C144.353 88.2971 144.194 88.3787 143.987 88.3787C143.78 88.3787 143.622 88.2971 143.513 88.1339C143.404 87.9703 143.349 87.7335 143.349 87.4233C143.349 87.1123 143.404 86.8752 143.513 86.712C143.622 86.5485 143.78 86.4667 143.987 86.4667Z" fill="#1A1A1A"/>
<path d="M19.8152 79.3257H20.5541H19.8152Z" fill="#1A1A1A"/>
<parameter name="19.8152 79.3257H20.5541" stroke="#1A1A1A" stroke-width="1.06667"/>
<path d="M19.8152 60.9705H20.5541H19.8152Z" fill="#1A1A1A"/>
<path d="M19.8152 60.9705H20.5541" stroke="#1A1A1A" stroke-width="1.06667"/>
<path d="M13.74575 61.7212H14.61777V61.9309H13.44531V61.7212C13.54005 61.6232 13.66922 61.4918 13.83283 61.327C13.99671 61.1619 14.09963 61.0554 14.14158 61.0075C14.22154 60.918 14.27735 60.8421 14.30902 60.78C14.34095 60.7178 14.35692 60.6568 14.35692 60.5967C14.35692 60.4988 14.32248 60.419 14.2536 60.3574C14.18473 60.2955 14.09501 60.2645 13.98444 60.2645C13.90606 60.2645 13.82333 60.2781 13.73625 60.3052C13.64943 60.3324 13.55654 60.3736 13.45758 60.4289V60.1769C13.55813 60.1366 13.65207 60.1062 13.73942 60.0856C13.82703 60.0651 13.90712 60.0548 13.97969 60.0548C14.17101 60.0548 14.32353 60.1026 14.43727 60.1982C14.55101 60.2935 14.60788 60.421 14.60788 60.5805C14.60788 60.6564 14.59363 60.7282 14.56513 60.7962C14.53689 60.8638 14.48517 60.9438 14.40996 61.0359C14.38938 61.0599 14.3238 61.1289 14.21323 61.2429C14.10292 61.3569 13.9471 61.5163 13.74575 61.7212Z" fill="#1A1A1A"/>
<path d="M15.145 60.0879H16.1259V60.2981H15.37379V60.7495C15.40994 60.7371 15.44609 60.7279 15.48225 60.7219C15.51866 60.7158 15.55508 60.7128 15.5915 60.7128C15.79759 60.7128 15.96081 60.7691 16.0811 60.8818C16.2017 60.9945 16.262 61.1471 16.262 61.3396C16.262 61.5379 16.2002 61.692 16.0764 61.8021C15.95263 61.9119 15.7782 61.9668 15.5531 61.9668C15.47552 61.9668 15.39648 61.9602 15.316 61.947C15.23577 61.9339 15.15278 61.9141 15.06702 61.8878V61.637C15.14117 61.6773 15.21783 61.7073 15.297 61.7271C15.37616 61.7468 15.45982 61.7567 15.54795 61.7567C15.69072 61.7567 15.80366 61.7193 15.88679 61.6445C15.97018 61.5697 16.0119 61.4681 16.0119 61.3396C16.0119 61.2114 15.97018 61.1099 15.88679 61.0351C15.80366 60.96 15.69072 60.9225 15.54795 60.9225C15.48119 60.9225 15.41456 60.9299 15.34806 60.9446C15.28182 60.9594 15.21413 60.9824 15.145 61.0137V60.0879Z" fill="#1A1A1A"/>
<path d="M18.3251 61.12C18.2533 61.12 18.197 61.1504 18.156 61.2112C18.1154 61.2721 18.0951 61.3568 18.0951 61.4656C18.0951 61.5725 18.1154 61.6566 18.156 61.718C18.197 61.7793 18.2533 61.81 18.3251 61.81C18.3953 61.81 18.4507 61.7793 18.4913 61.718C18.5322 61.6566 18.5527 61.5725 18.5527 61.4656C18.5527 61.3576 18.5322 61.2731 18.4913 61.212C18.4507 61.1507 18.3953 61.12 18.3251 61.12ZM18.3251 60.9632C18.4554 60.9632 18.5589 61.0085 18.6354 61.0991C18.7122 61.1894 18.7506 61.3115 18.7506 61.4656C18.7506 61.6194 18.7121 61.7414 18.635 61.8317C18.558 61.9218 18.4546 61.9668 18.3251 61.9668C18.1931 61.9668 18.0888 61.9218 18.012 61.8317C17.9354 61.7414 17.8972 61.6194 17.8972 61.4656C17.8972 61.3108 17.9357 61.1883 18.0128 61.0983C18.0898 61.0082 18.1939 60.9632 18.3251 60.9632ZM17.0485 60.2116C16.9775 60.2116 16.9216 60.2422 16.8807 60.3036C16.84 60.3647 16.8197 60.4488 16.8197 60.556C16.8197 60.6645 16.8399 60.7493 16.8803 60.8103C16.9207 60.8712 16.9767 60.9016 17.0485 60.9016C17.1203 60.9016 17.1765 60.8712 17.2171 60.8103C17.258 60.7493 17.2785 60.6645 17.2785 60.556C17.2785 60.4499 17.2579 60.366 17.2167 60.3044C17.1756 60.2425 17.1195 60.2116 17.0485 60.2116ZM18.1655 60.0548H18.3635L17.208 61.9668H17.0101L18.1655 60.0548ZM17.0485 60.0548C17.1789 60.0548 17.2827 60.0998 17.36 60.1898C17.4376 60.2799 17.4764 60.4019 17.4764 60.556C17.4764 60.7113 17.4379 60.8339 17.3608 60.9237C17.2838 61.0135 17.1797 61.0584 17.0485 61.0584C16.9174 61.0584 16.8136 61.0134 16.7374 60.9233C16.6611 60.833 16.623 60.7105 16.623 60.556C16.623 60.4027 16.6612 60.281 16.7378 60.1906C16.8146 60.1001 16.9181 60.0548 17.0485 60.0548Z" fill="#1A1A1A"/>
<path d="M19.8152 42.6155H20.5541H19.8152Z" fill="#1A1A1A"/>
<path d="M19.8152 42.6155H20.5541" stroke="#1A1A1A" stroke-width="1.06667"/>
<path d="M13.53324 41.733H14.51412V41.9431H13.76203V42.3945C13.79818 42.3822 13.83434 42.3729 13.87049 42.3669C13.90691 42.3608 13.94332 42.3578 13.97974 42.3578C14.18584 42.3578 14.34905 42.4141 14.46939 42.5268C14.58998 42.6395 14.65028 42.7921 14.65028 42.9846C14.65028 43.1829 14.5884 43.3371 14.46464 43.4471C14.34087 43.5569 14.16644 43.6118 13.94134 43.6118C13.86376 43.6118 13.78473 43.6052 13.70424 43.5921C13.62402 43.5789 13.54103 43.5592 13.45526 43.5328V43.282C13.52941 43.3223 13.60607 43.3523 13.68524 43.3721C13.76441 43.3918 13.84806 43.4017 13.9362 43.4017C14.07896 43.4017 14.19191 43.3643 14.27503 43.2895C14.35842 43.2147 14.40012 43.1131 14.40012 42.9846C14.40012 42.8564 14.35842 42.7549 14.27503 42.6801C14.19191 42.605 14.07896 42.5675 13.9362 42.5675C13.86943 42.5675 13.8028 42.5749 13.7363 42.5896C13.67007 42.6044 13.60238 42.6274 13.53324 42.6588V41.733Z" fill="#1A1A1A"/>
<path d="M15.67666 41.8973C15.54814 41.8973 15.45143 41.9605 15.38651 42.0869C15.32186 42.213 15.28953 42.4028 15.28953 42.6564C15.28953 42.9089 15.32186 43.0984 15.38651 43.2248C15.45143 43.3511 15.54814 43.4143 15.67666 43.4143C15.80623 43.4143 15.90334 43.3511 15.96799 43.2248C16.0329 43.0984 16.0654 42.9089 16.0654 42.6564C16.0654 42.4028 16.0329 42.213 15.96799 42.0869C15.90334 41.9605 15.80623 41.8973 15.67666 41.8973ZM15.67666 41.6998C15.88381 41.6998 16.042 41.7815 16.1513 41.9451C16.2605 42.1083 16.3151 42.3454 16.3151 42.6564C16.3151 42.9666 16.2605 43.2034 16.1513 43.3669C16.042 43.5302 15.88381 43.6118 15.67666 43.6118C15.46977 43.6118 15.3117 43.5302 15.20245 43.3669C15.0932 43.2034 15.03857 42.9666 15.03857 42.6564C15.03857 42.3454 15.0932 42.1083 15.20245 41.9451C15.3117 41.7815 15.46977 41.6998 15.67666 41.6998Z" fill="#1A1A1A"/>
<path d="M18.3251 42.765C18.2533 42.765 18.197 42.7954 18.156 42.8562C18.1154 42.9171 18.0951 43.0019 18.0951 43.1106C18.0951 43.2175 18.1154 43.3016 18.156 43.363C18.197 43.4243 18.2533 43.455 18.3251 43.455C18.3953 43.455 18.4507 43.4243 18.4913 43.363C18.5322 43.3016 18.5527 43.2175 18.5527 43.1106C18.5527 43.0026 18.5322 42.9181 18.4913 42.857C18.4507 42.7957 18.3953 42.765 18.3251 42.765ZM18.3251 42.6082C18.4554 42.6082 18.5589 42.6535 18.6354 42.7441C18.7122 42.8344 18.7506 42.9566 18.7506 43.1106C18.7506 43.2644 18.7121 43.3864 18.635 43.4767C18.558 43.5668 18.4546 43.6118 18.3251 43.6118C18.1931 43.6118 18.0888 43.5668 18.012 43.4767C17.9354 43.3864 17.8972 43.2644 17.8972 43.1106C17.8972 42.9558 17.9357 42.8333 18.0128 42.7433C18.0898 42.6532 18.1939 42.6082 18.3251 42.6082ZM17.0485 41.8566C16.9775 41.8566 16.9216 41.8873 16.8807 41.9486C16.84 42.0097 16.8197 42.0938 16.8197 42.201C16.8197 42.3095 16.8399 42.3943 16.8803 42.4554C16.9207 42.5162 16.9767 42.5466 17.0485 42.5466C17.1203 42.5466 17.1765 42.5162 17.2171 42.4554C17.258 42.3943 17.2785 42.3095 17.2785 42.201C17.2785 42.0949 17.2579 42.011 17.2167 41.9494C17.1756 41.8875 17.1195 41.8566 17.0485 41.8566ZM18.1655 41.6998H18.3635L17.208 43.6118H17.0101L18.1655 41.6998ZM17.0485 41.6998C17.1789 41.6998 17.2827 41.7448 17.36 41.8349C17.4376 41.9249 17.4764 42.047 17.4764 42.201C17.4764 42.3564 17.4379 42.4789 17.3608 42.5687C17.2838 42.6585 17.1797 42.7034 17.0485 42.7034C16.9174 42.7034 16.8136 42.6584 16.7374 42.5683C16.6611 42.478 16.623 42.3556 16.623 42.201C16.623 42.0478 16.6612 41.926 16.7378 41.8357C16.8146 41.7451 16.9181 41.6998 17.0485 41.6998Z" fill="#1A1A1A"/>
<path d="M19.8152 24.2603H20.5541H19.8152Z" fill="#1A1A1A"/>
<path d="M19.8152 24.2603H20.5541" stroke="#1A1A1A" stroke-width="1.06667"/>
<path d="M13.46753 23.3778H14.65503V23.484L13.98449 25.2207H13.72363L14.35459 23.5879H13.46753V23.3778Z" fill="#1A1A1A"/>
<path d="M15.145 23.3777H16.1259V23.5879H15.37379V24.0393C15.40994 24.0269 15.44609 24.0177 15.48225 24.0117C15.51866 24.0056 15.55508 24.0026 15.5915 24.0026C15.79759 24.0026 15.96081 24.0589 16.0811 24.1716C16.2017 24.2843 16.262 24.4369 16.262 24.6294C16.262 24.8277 16.2002 24.9818 16.0764 25.0919C15.95263 25.2017 15.7782 25.2566 15.5531 25.2566C15.47552 25.2566 15.39648 25.25 15.316 25.2368C15.23577 25.2237 15.15278 25.2039 15.06702 25.1776V24.9268C15.14117 24.9671 15.21783 24.9971 15.297 25.0168C15.37616 25.0366 15.45982 25.0465 15.54795 25.0465C15.69072 25.0465 15.80366 25.0091 15.88679 24.9343C15.97018 24.8595 16.0119 24.7579 16.0119 24.6294C16.0119 24.5012 15.97018 24.3996 15.88679 24.3249C15.80366 24.2498 15.69072 24.2123 15.54795 24.2123C15.48119 24.2123 15.41456 24.2197 15.34806 24.2344C15.28182 24.2492 15.21413 24.2722 15.145 24.3035V23.3777Z" fill="#1A1A1A"/>
<path d="M18.3251 24.4098C18.2533 24.4098 18.197 24.4402 18.156 24.501C18.1154 24.5618 18.0951 24.6466 18.0951 24.7554C18.0951 24.8623 18.1154 24.9464 18.156 25.0078C18.197 25.0691 18.2533 25.0998 18.3251 25.0998C18.3953 25.0998 18.4507 25.0691 18.4913 25.0078C18.5322 24.9464 18.5527 24.8623 18.5527 24.7554C18.5527 24.6474 18.5322 24.5629 18.4913 24.5018C18.4507 24.4405 18.3953 24.4098 18.3251 24.4098ZM18.3251 24.253C18.4554 24.253 18.5589 24.2983 18.6354 24.3889C18.7122 24.4792 18.7506 24.6013 18.7506 24.7554C18.7506 24.9092 18.7121 25.0312 18.635 25.1215C18.558 25.2116 18.4546 25.2566 18.3251 25.2566C18.1931 25.2566 18.0888 25.2116 18.012 25.1215C17.9354 25.0312 17.8972 24.9092 17.8972 24.7554C17.8972 24.6006 17.9357 24.4781 18.0128 24.3881C18.0898 24.298 18.1939 24.253 18.3251 24.253ZM17.0485 23.5014C16.9775 23.5014 16.9216 23.532 16.8807 23.5934C16.84 23.6545 16.8197 23.7386 16.8197 23.8458C16.8197 23.9543 16.8399 24.039 16.8803 24.1001C16.9207 24.161 16.9767 24.1914 17.0485 24.1914C17.1203 24.1914 17.1765 24.161 17.2171 24.1001C17.258 24.039 17.2785 23.9543 17.2785 23.8458C17.2785 23.7397 17.2579 23.6558 17.2167 23.5942C17.1756 23.5323 17.1195 23.5014 17.0485 23.5014ZM18.1655 23.3446H18.3635L17.208 25.2566H17.0101L18.1655 23.3446ZM17.0485 23.3446C17.1789 23.3446 17.2827 23.3896 17.36 23.4796C17.4376 23.5697 17.4764 23.6917 17.4764 23.8458C17.4764 24.0011 17.4379 24.1237 17.3608 24.2135 C17.2838 24.3033 17.1797 24.3482 17.0485 24.3482C16.9174 24.3482 16.8136 24.3031 16.7374 24.2131C16.6611 24.1228 16.623 24.0003 16.623 23.8458C16.623 23.6925 16.6612 23.5707 16.7378 23.4804C16.8146 23.3899 16.9181 23.3446 17.0485 23.3446Z" fill="#1A1A1A"/>
<path d="M19.8152 5.90527H20.5541H19.8152Z" fill="#1A1A1A"/>
<path d="M19.8152 5.90527H20.5541" stroke="#1A1A1A" stroke-width="1.06667"/>
<path d="M11.96217 6.65587H12.37027V5.2498L11.92615 5.33866V5.11156L12.3679 5.02269H12.61767V6.65587H13.02577V6.8656H11.96217V6.65587Z" fill="#1A1A1A"/>
<path d="M14.06478 5.18694C13.93627 5.18694 13.83955 5.25014 13.77463 5.37653C13.70998 5.50265 13.67766 5.6925 13.67766 5.94607C13.67766 6.19858 13.70998 6.38803 13.77463 6.51442C13.83955 6.64081 13.93627 6.70401 14.06478 6.70401C14.19435 6.70401 14.29146 6.64081 14.35611 6.51442C14.42103 6.38803 14.45349 6.19858 14.45349 5.94607C14.45349 5.6925 14.42103 5.50265 14.35611 5.37653C14.29146 5.25014 14.19435 5.18694 14.06478 5.18694ZM14.06478 4.98946C14.27193 4.98946 14.43013 5.07122 14.53938 5.23474C14.64863 5.39799 14.70326 5.6351 14.70326 5.94607C14.70326 6.25625 14.64863 6.4931 14.53938 6.65661C14.43013 6.81986 14.27193 6.90149 14.06478 6.90149C13.85789 6.90149 13.69982 6.81986 13.59057 6.65661C13.48132 6.4931 13.4267 6.25625 13.4267 5.94607C13.4267 5.6351 13.48132 5.39799 13.59057 5.23474C13.69982 5.07122 13.85789 4.98946 14.06478 4.98946Z" fill="#1A1A1A"/>
<path d="M15.6766 5.18694C15.54808 5.18694 15.45137 5.25014 15.38645 5.37653C15.3218 5.50265 15.28947 5.6925 15.28947 5.94607C15.28947 6.19858 15.3218 6.38803 15.38645 6.51442C15.45137 6.64081 15.54808 6.70401 15.6766 6.70401C15.80617 6.70401 15.90328 6.64081 15.96793 6.51442C16.0328 6.38803 16.0653 6.19858 16.0653 5.94607C16.0653 5.6925 16.0328 5.50265 15.96793 5.37653C15.90328 5.25014 15.80617 5.18694 15.6766 5.18694ZM15.6766 4.98946C15.88375 4.98946 16.042 5.07122 16.1512 5.23474C16.2605 5.39799 16.3151 5.6351 16.3151 5.94607C16.3151 6.25625 16.2605 6.4931 16.1512 6.65661C16.042 6.81986 15.88375 6.90149 15.6766 6.90149C15.46971 6.90149 15.31164 6.81986 15.20239 6.65661C15.09314 6.4931 15.03851 6.25625 15.03851 5.94607C15.03851 5.6351 15.09314 5.39799 15.20239 5.23474C15.31164 5.07122 15.46971 4.98946 15.6766 4.98946Z" fill="#1A1A1A"/>
<path d="M18.3251 6.05468C18.2533 6.05468 18.197 6.0851 18.156 6.14592C18.1154 6.20675 18.0951 6.29153 18.0951 6.40028C18.0951 6.50718 18.1154 6.59131 18.156 6.65266C18.197 6.71401 18.2533 6.74469 18.3251 6.74469C18.3953 6.74469 18.4507 6.71401 18.4913 6.65266C18.5322 6.59131 18.5527 6.50718 18.5527 6.40028C18.5527 6.29232 18.5322 6.2078 18.4913 6.14671C18.4507 6.08536 18.3953 6.05468 18.3251 6.05468ZM18.3251 5.89788C18.4554 5.89788 18.5589 5.94317 18.6354 6.03375C18.7122 6.12407 18.7506 6.24624 18.7506 6.40028C18.7506 6.55405 18.7121 6.6761 18.635 6.76641C18.558 6.85646 18.4546 6.90149 18.3251 6.90149C18.1931 6.90149 18.0888 6.85646 18.012 6.76641C17.9354 6.6761 17.8972 6.55405 17.8972 6.40028C17.8972 6.24545 17.9357 6.12301 18.0128 6.03296C18.0898 5.94291 18.1939 5.89788 18.3251 5.89788ZM17.0485 5.14626C16.9775 5.14626 16.9216 5.17694 16.8807 5.23829C16.84 5.29938 16.8197 5.38351 16.8197 5.49067C16.8197 5.59916 16.8399 5.68394 16.8803 5.74503C16.9207 5.80586 16.9767 5.83627 17.0485 5.83627C17.1203 5.83627 17.1765 5.80586 17.2171 5.74503C17.258 5.68394 17.2785 5.59916 17.2785 5.49067C17.2785 5.38456 17.2579 5.30069 17.2167 5.23908C17.1756 5.1772 17.1195 5.14626 17.0485 5.14626ZM18.1655 4.98946H18.3635L17.208 6.90149H17.0101L18.1655 4.98946ZM17.0485 4.98946C17.1789 4.98946 17.2827 5.03449 17.36 5.12454C17.4376 5.21459 17.4764 5.33664 17.4764 5.49067C17.4764 5.64603 17.4379 5.7686 17.3608 5.85839C17.2838 5.94817 17.1797 5.99307 17.0485 5.99307C16.9174 5.99307 16.8136 5.94804 16.7374 5.85799C16.6611 5.76768 16.623 5.64524 16.623 5.49067C16.623 5.33743 16.6612 5.21565 16.7378 5.12533C16.8146 5.03475 16.9181 4.98946 17.0485 4.98946Z" fill="#1A1A1A"/>
<mask id="mask0_9_66" style="mask-type:luminance" maskUnits="userSpaceOnUse" x="13" y="2" width="137" height="81">
<path d="M149.72 2.27502H13.6293V82.1402H149.72V2.27502Z" fill="white"/>
</mask>
<g mask="url(#mask0_9_66)">
<path d="M19.8152 5.90527L21.0566 9.14651L22.2979 12.2447L23.5392 15.206L24.7806 18.0367L26.0219 20.7424L27.2632 23.3286L28.5045 25.8007L29.7459 28.1636L30.9872 30.4222L32.2285 32.5811L33.4698 34.6447L34.7112 36.6172L35.9525 38.5026L37.1938 40.3048L38.4351 42.0275L39.6765 43.674L40.9178 45.2479L42.1591 46.7523L43.4004 48.1903L44.6418 49.5648L45.8831 50.8787L47.1244 52.1345L48.3657 53.3349L49.6071 54.4823L50.8484 55.579L52.0897 56.6273L53.7448 57.9535L55.3999 59.2021L57.055 60.3778L58.7101 61.4848L60.3652 62.5272L62.0203 63.5086L63.6754 64.4327L65.3305 65.3028L66.9856 66.1221L68.6407 66.8935L70.2958 67.6198L71.9509 68.3037L74.0198 69.1027L76.0887 69.8437L78.1576 70.5311L80.2264 71.1686L82.2953 71.7599L84.3642 72.3083L86.8468 72.9142L89.3295 73.4678L91.8121 73.9736L94.2948 74.4357L97.1912 74.9246L100.088 75.3647L102.984 75.7607L106.294 76.1651L109.604 76.5236L113.328 76.8786L117.052 77.1886L121.19 77.4871L125.742 77.7676L130.707 78.0251L136.086 78.2562L141.879 78.4593L143.534 78.51" stroke="#5F33E1" stroke-width="1" stroke-linecap="square"/>
</g>
<mask id="mask2_9_66" style="mask-type:luminance" maskUnits="userSpaceOnUse" x="13" y="2" width="137" height="81">
<path d="M149.72 2.27502H13.6293V82.1402H149.72V2.27502Z" fill="white"/>
</mask>
<g mask="url(#mask2_9_66)">
<path d="M40.4351 5.90527L42.5053 8.08375L44.5756 10.1976L46.6458 12.2487L48.7161 14.239L50.7864 16.1702L52.8566 18.0441L54.9269 19.8624L56.9971 21.6268L59.0674 23.3388L61.5517 25.3262L64.036 27.2432L66.5203 29.0921L69.0047 30.8753L71.489 32.5952L73.9733 34.2541L76.4576 35.8541L78.9419 37.3973L81.4262 38.8858L83.9105 40.3213L86.3948 41.7059L88.8792 43.0414L91.3635 44.3295L94.2618 45.7745L97.1602 47.1599L100.059 48.4881L102.957 49.7614L105.855 50.9822L108.754 52.1526L111.652 53.2746L114.55 54.3503L117.449 55.3815L120.761 56.5081L124.074 57.5817L127.386 58.6047L130.698 59.5796L134.011 60.5087L137.737 61.5017L141.464 62.4423L143.534 62.9433" stroke="#AB93FF" stroke-width="1" stroke-linecap="square"/>
</g>
<mask id="mask3_9_66" style="mask-type:luminance" maskUnits="userSpaceOnUse" x="13" y="2" width="137" height="81">
<path d="M149.72 2.27502H13.6293V82.1402H149.72V2.27502Z" fill="white"/>
</mask>
<g mask="url(#mask3_9_66)">
<path d="M61.0549 5.90527L64.7851 7.8708L68.5153 9.7837L72.2455 11.6454L75.9757 13.4572L79.7059 15.2206L83.4362 16.9367L87.5808 18.7897L91.7255 20.5877L95.8702 22.3322L100.015 24.025L104.16 25.6675L108.304 27.2611L112.449 28.8075L116.594 30.3079L121.153 31.907L125.712 33.4539L130.271 34.9503L134.83 36.3979L139.389 37.7983L143.534 39.0317" stroke="#AB93FF" stroke-width="1" stroke-linecap="square"/>
</g>
<mask id="mask4_9_66" style="mask-type:luminance" maskUnits="userSpaceOnUse" x="13" y="2" width="137" height="81">
<path d="M149.72 2.27502H13.6293V82.1402H149.72V2.27502Z" fill="white"/>
</mask>
<g mask="url(#mask4_9_66)">
<path d="M102.294 5.90527L102.711 6.01643L103.128 6.12742L103.544 6.23824L103.961 6.3489L104.377 6.45939L104.794 6.56971L105.21 6.67986L105.627 6.78984L106.043 6.89966L106.46 7.00932L106.877 7.1188L107.293 7.22813L107.71 7.33728L108.126 7.44627L108.543 7.5551L108.959 7.66376L109.376 7.77225L109.793 7.88059L110.209 7.98875L110.626 8.09676L111.042 8.2046L111.459 8.31228L111.875 8.41979L112.292 8.52714L112.708 8.63433L113.125 8.74136L113.542 8.84822L113.958 8.95493L114.375 9.06147L114.791 9.16785L115.208 9.27407L115.624 9.38013L116.041 9.48602L116.458 9.59176L116.874 9.69734L117.291 9.80276L117.707 9.90801L118.124 10.0131L118.54 10.1181L118.957 10.2228L119.373 10.3275L119.79 10.4319L120.207 10.5362L120.623 10.6404L121.04 10.7444L121.456 10.8482L121.873 10.9519L122.289 11.0554L122.706 11.1587L123.123 11.262L123.539 11.365L123.956 11.4679L124.372 11.5706L124.789 11.6732L125.205 11.7756L125.622 11.8779L126.038 11.98L126.455 12.082L126.872 12.1838L127.288 12.2854L127.705 12.3869L128.121 12.4883L128.538 12.5895L128.954 12.6905L129.371 12.7914L129.787 12.8921L130.204 12.9927L130.621 13.0931L131.037 13.1934L131.454 13.2935L131.87 13.3935L132.287 13.4933L132.703 13.593L133.12 13.6925L133.537 13.7919L133.953 13.8911L134.37 13.9902L134.786 14.0891L135.203 14.1879L135.619 14.2865L136.036 14.385L136.452 14.4833L136.869 14.5815L137.286 14.6795L137.702 14.7774L138.119 14.8751L138.535 14.9727L138.952 15.0701L139.368 15.1674L139.785 15.2645L140.202 15.3615L140.618 15.4583L141.035 15.555L141.451 15.6516L141.868 15.748L142.284 15.8442L142.701 15.9403L143.117 16.0363L143.534 16.1321" stroke="#AB93FF" stroke-width="1" stroke-linecap="square"/>
</g>
</g>
<defs>
<clipPath id="clip0_9_66">
<rect width="152" height="91" fill="white"/>
</clipPath>
</defs>
</svg>
